<svg width="606" height="87" fill="none" xmlns="http://www.w3.org/2000/svg"><path fill="url(#paint0_linear)" d="M14.01 42.09h108v8h-108z"/><path fill="url(#paint1_linear)" d="M14.01 42.09h108v8h-108z"/><path fill="url(#paint2_linear)" d="M14.01 42.09h108v8h-108z"/><path fill="url(#paint3_linear)" d="M14.01 42.09h108v8h-108z"/><path fill="url(#paint4_linear)" d="M130 42.09h108v8H130z"/><path fill="url(#paint5_linear)" d="M246 42.09h108v8H246z"/><path fill="url(#paint6_linear)" d="M362 42.09h108v8H362z"/><path fill="url(#paint7_linear)" d="M478 42.09h108v8H478z"/><path opacity=".2" d="M123.13 81.9c.25 0 .45.08.6.23.14.15.21.34.21.58v1.42h-11.59v-.8c0-.17.03-.34.1-.51.06-.19.17-.35.32-.5l5.46-5.47c.46-.45.87-.9 1.24-1.32.37-.42.68-.84.94-1.26.25-.43.45-.86.59-1.3.14-.44.21-.9.21-1.4 0-.47-.07-.9-.22-1.26a2.5 2.5 0 00-1.57-1.45 3.67 3.67 0 00-3.25.5 3 3 0 00-1.08 1.74c-.1.3-.25.5-.43.6-.17.11-.42.14-.74.08l-1.23-.22c.11-.8.33-1.5.66-2.11a5.06 5.06 0 012.95-2.47 6.8 6.8 0 014.17.03 4.4 4.4 0 012.75 2.48 5.4 5.4 0 01.1 3.81 6.71 6.71 0 01-.76 1.56c-.32.5-.7.98-1.13 1.45-.43.47-.88.94-1.36 1.42l-4.38 4.47c.34-.08.68-.16 1.01-.21.35-.06.67-.09.98-.09h5.44zm15.34-6.4c0 1.5-.17 2.8-.5 3.92a8.1 8.1 0 01-1.33 2.75 5.32 5.32 0 01-2 1.61 5.8 5.8 0 01-2.46.53 5.35 5.35 0 01-4.46-2.14c-.56-.73-1-1.65-1.32-2.75-.32-1.11-.48-2.42-.48-3.92 0-1.51.16-2.82.48-3.92a8.1 8.1 0 011.32-2.76 5.3 5.3 0 014.46-2.15c.88 0 1.7.18 2.47.53.76.35 1.43.9 2 1.62a7.96 7.96 0 011.33 2.76c.32 1.1.49 2.4.49 3.92zm-2.43 0c0-1.3-.1-2.39-.32-3.26-.21-.88-.5-1.58-.86-2.1a3.12 3.12 0 00-2.68-1.49c-.5 0-.99.12-1.45.34-.47.23-.88.6-1.24 1.14a6.54 6.54 0 00-.84 2.1c-.21.88-.32 1.97-.32 3.27s.1 2.38.32 3.25c.2.88.48 1.58.84 2.1.36.54.77.91 1.24 1.14a3.3 3.3 0 002.9 0c.47-.23.88-.6 1.23-1.13.36-.53.65-1.23.85-2.1.22-.88.33-1.97.33-3.26zM20.3 75.37c0 1.5-.16 2.81-.49 3.92a8.1 8.1 0 01-1.33 2.75 5.33 5.33 0 01-2 1.61 5.8 5.8 0 01-2.47.53 5.35 5.35 0 01-4.46-2.14c-.56-.73-1-1.65-1.32-2.75-.32-1.1-.48-2.42-.48-3.92 0-1.51.16-2.82.48-3.92a8.08 8.08 0 011.32-2.76 5.3 5.3 0 014.46-2.15c.89 0 1.7.18 2.47.53.77.35 1.43.9 2 1.62a7.95 7.95 0 011.33 2.76c.33 1.1.5 2.41.5 3.92zm-2.43 0c0-1.3-.1-2.39-.32-3.26-.2-.87-.5-1.58-.85-2.1A3.11 3.11 0 0014 68.52c-.5 0-.99.1-1.45.33-.47.23-.88.6-1.24 1.14a6.54 6.54 0 00-.84 2.1c-.2.88-.31 1.97-.31 3.27s.1 2.38.3 3.26c.22.87.5 1.57.85 2.1.36.53.77.9 1.24 1.13a3.3 3.3 0 002.9 0c.47-.22.88-.6 1.24-1.13.36-.53.64-1.23.85-2.1.22-.88.32-1.96.32-3.26zM236.8 77.7v-6.73l.02-.74c.02-.26.04-.53.08-.81l-6.04 8.28h5.95zm4.56 0v1.36a.5.5 0 01-.13.35.48.48 0 01-.37.14h-2V84h-2.05v-4.45h-7.58a.69.69 0 01-.44-.14.75.75 0 01-.24-.39l-.24-1.2 8.34-11.1h2.21V77.7h2.5zm13.92-2.33c0 1.5-.17 2.81-.5 3.92a8.1 8.1 0 01-1.33 2.75 5.34 5.34 0 01-2 1.61 5.8 5.8 0 01-2.46.53 5.36 5.36 0 01-4.46-2.14c-.56-.73-1-1.65-1.32-2.75-.33-1.1-.49-2.42-.49-3.92 0-1.51.16-2.82.49-3.92a8.07 8.07 0 011.32-2.76 5.31 5.31 0 014.46-2.15c.88 0 1.7.18 2.46.53.77.35 1.44.9 2 1.62a7.96 7.96 0 011.33 2.76c.33 1.1.5 2.41.5 3.92zm-2.43 0c0-1.3-.11-2.39-.33-3.26-.2-.87-.49-1.58-.85-2.1a3.11 3.11 0 00-2.68-1.48c-.5 0-1 .1-1.46.33-.46.23-.87.6-1.23 1.14a6.52 6.52 0 00-.85 2.1c-.2.88-.3 1.97-.3 3.27s.1 2.38.3 3.26c.21.87.5 1.57.85 2.1.36.53.77.9 1.23 1.13a3.3 3.3 0 002.91 0c.47-.22.88-.6 1.23-1.13.36-.53.65-1.23.85-2.1.22-.88.33-1.96.33-3.26zM348.03 82.23a3.58 3.58 0 002.66-1.01c.32-.31.56-.68.74-1.12.18-.43.26-.9.26-1.4 0-.56-.08-1.05-.26-1.48a3.05 3.05 0 00-1.83-1.82 4.13 4.13 0 00-2.93.05 3.38 3.38 0 00-2.1 3.2c0 .53.07 1.01.22 1.45a3.07 3.07 0 001.76 1.87c.43.17.93.26 1.48.26zm-1.1-9.08a34.66 34.66 0 01-.79 1 4.86 4.86 0 012.8-.78c.68 0 1.33.11 1.95.34a4.72 4.72 0 012.74 2.6c.27.64.4 1.37.4 2.2a5.39 5.39 0 01-3.53 5.24c-.73.3-1.53.44-2.42.44a6.5 6.5 0 01-2.4-.42 5.22 5.22 0 01-1.81-1.19 5.44 5.44 0 01-1.16-1.87 6.72 6.72 0 01.08-4.88c.34-.86.87-1.78 1.6-2.75l4.31-5.78a1.6 1.6 0 011.25-.57h2.1l-5.13 6.42zm21.35 2.22c0 1.5-.17 2.81-.5 3.92a8.1 8.1 0 01-1.33 2.75 5.34 5.34 0 01-2 1.61 5.8 5.8 0 01-2.46.53 5.36 5.36 0 01-4.46-2.14c-.56-.73-1-1.65-1.32-2.75-.32-1.1-.48-2.42-.48-3.92 0-1.51.15-2.82.48-3.92a8.07 8.07 0 011.32-2.76 5.31 5.31 0 014.46-2.15c.88 0 1.7.18 2.46.53.77.35 1.44.9 2 1.62a7.96 7.96 0 011.33 2.76c.33 1.1.5 2.41.5 3.92zm-2.43 0c0-1.3-.11-2.39-.33-3.26-.2-.87-.49-1.58-.85-2.1a3.11 3.11 0 00-2.68-1.48c-.5 0-1 .1-1.46.33-.46.23-.87.6-1.23 1.14a6.52 6.52 0 00-.85 2.1c-.2.88-.3 1.97-.3 3.27s.1 2.38.3 3.26c.21.87.5 1.57.85 2.1.36.53.77.9 1.23 1.13a3.3 3.3 0 002.91 0c.47-.22.88-.6 1.23-1.13.36-.53.64-1.23.85-2.1.22-.88.33-1.96.33-3.26zM467.93 82.46a4.3 4.3 0 001.46-.23 2.74 2.74 0 001.75-1.64c.16-.38.23-.8.23-1.26 0-.56-.09-1.04-.27-1.44a2.7 2.7 0 00-.75-1 2.93 2.93 0 00-1.1-.58 4.48 4.48 0 00-2.65 0c-.42.12-.78.32-1.1.58a2.7 2.7 0 00-.74 1c-.18.4-.26.88-.26 1.44 0 .46.07.88.22 1.26a2.75 2.75 0 001.76 1.64c.42.15.9.23 1.45.23zm0-13.99c-.5 0-.93.08-1.3.23a2.57 2.57 0 00-1.68 2.58c0 .37.05.74.16 1.1.11.35.28.67.51.95.25.27.55.5.93.66.38.17.84.26 1.38.26.54 0 1-.09 1.37-.26a2.52 2.52 0 001.45-1.6c.1-.37.17-.74.17-1.11 0-.39-.07-.75-.2-1.09a2.46 2.46 0 00-1.49-1.49c-.37-.15-.8-.23-1.3-.23zm2.59 6.65c1.07.32 1.89.84 2.44 1.55.56.72.84 1.62.84 2.7 0 .76-.14 1.44-.43 2.05-.28.61-.68 1.13-1.2 1.57-.52.42-1.13.75-1.86.98-.72.23-1.51.35-2.38.35-.86 0-1.66-.12-2.38-.35a5.66 5.66 0 01-1.86-.98 4.59 4.59 0 01-1.62-3.61c0-1.1.27-2 .82-2.7a4.73 4.73 0 012.46-1.56 4.07 4.07 0 01-2.01-1.5 4.21 4.21 0 01-.67-2.4 4.31 4.31 0 011.44-3.24 5.1 5.1 0 011.67-.96 6.35 6.35 0 012.15-.35c.79 0 1.5.12 2.15.35.66.23 1.2.55 1.67.96.46.41.82.9 1.06 1.46.26.55.39 1.15.39 1.79 0 .92-.22 1.72-.67 2.39a4.07 4.07 0 01-2.01 1.5zm17.64.38c0 1.5-.17 2.8-.5 3.92a8.08 8.08 0 01-1.33 2.75 5.33 5.33 0 01-2 1.61 5.8 5.8 0 01-2.46.53 5.36 5.36 0 01-4.46-2.14c-.56-.73-1-1.65-1.32-2.75-.32-1.11-.48-2.42-.48-3.92 0-1.51.16-2.82.48-3.92a8.1 8.1 0 011.32-2.76 5.32 5.32 0 014.46-2.15c.88 0 1.7.18 2.46.53.77.35 1.44.9 2 1.62a7.94 7.94 0 011.34 2.76c.32 1.1.49 2.4.49 3.92zm-2.43 0c0-1.3-.1-2.39-.33-3.26-.2-.88-.49-1.58-.85-2.1a3.1 3.1 0 00-2.68-1.49c-.5 0-.99.12-1.45.34-.47.23-.88.6-1.24 1.14a6.54 6.54 0 00-.85 2.1c-.2.88-.3 1.97-.3 3.27s.1 2.38.3 3.25c.21.88.5 1.58.85 2.1.36.54.77.91 1.24 1.14a3.3 3.3 0 002.9 0c.47-.23.88-.6 1.23-1.13.36-.53.65-1.23.85-2.1.22-.88.33-1.97.33-3.26zM575.45 82.34v1.79h-9.33v-1.8h3.66v-11.3c0-.37.01-.74.04-1.13l-2.94 2.5a.83.83 0 01-.92.08 1.24 1.24 0 01-.19-.17l-.73-1.02 5.17-4.46h1.91v15.5h3.33zm14.91-6.84c0 1.5-.16 2.8-.49 3.92a8.1 8.1 0 01-1.33 2.75 5.32 5.32 0 01-2 1.61 5.8 5.8 0 01-2.46.53 5.35 5.35 0 01-4.46-2.14c-.57-.73-1-1.65-1.33-2.75-.32-1.11-.48-2.42-.48-3.92 0-1.51.16-2.82.48-3.92a8.1 8.1 0 011.33-2.76 5.31 5.31 0 014.46-2.15c.88 0 1.7.18 2.46.53.77.35 1.44.9 2 1.62a7.96 7.96 0 011.33 2.76c.33 1.1.5 2.4.5 3.92zm-2.42 0c0-1.3-.11-2.39-.33-3.26-.2-.88-.5-1.58-.85-2.1a3.12 3.12 0 00-2.68-1.49c-.5 0-1 .12-1.46.34-.46.23-.88.6-1.24 1.14a6.54 6.54 0 00-.84 2.1c-.2.88-.31 1.97-.31 3.27s.1 2.38.31 3.25c.21.88.49 1.58.84 2.1.36.54.78.91 1.24 1.14a3.3 3.3 0 002.91 0c.47-.23.88-.6 1.23-1.13.36-.53.64-1.23.85-2.1.22-.88.33-1.97.33-3.26zm16.37 0c0 1.5-.16 2.8-.49 3.92a8.1 8.1 0 01-1.33 2.75 5.32 5.32 0 01-2 1.61 5.8 5.8 0 01-2.47.53 5.35 5.35 0 01-4.46-2.14c-.56-.73-1-1.65-1.32-2.75-.32-1.11-.48-2.42-.48-3.92 0-1.51.16-2.82.48-3.92a8.1 8.1 0 011.33-2.76 5.31 5.31 0 014.45-2.15c.89 0 1.7.18 2.47.53.77.35 1.43.9 2 1.62a7.96 7.96 0 011.33 2.76c.33 1.1.5 2.4.5 3.92zm-2.42 0c0-1.3-.11-2.39-.33-3.26-.2-.88-.5-1.58-.85-2.1a3.12 3.12 0 00-2.69-1.49c-.5 0-.99.12-1.45.34-.46.23-.88.6-1.24 1.14a6.54 6.54 0 00-.84 2.1c-.2.88-.31 1.97-.31 3.27s.1 2.38.31 3.25c.2.88.49 1.58.84 2.1.36.54.78.91 1.24 1.14a3.3 3.3 0 002.91 0c.47-.23.87-.6 1.23-1.13.36-.53.64-1.23.85-2.1.22-.88.33-1.97.33-3.26z" fill="#262626"/><g filter="url(#filter0_d)"><path d="M173.76 18.34V21H163.6V3.65h3.22v14.69h6.94zm6.65-9.84c.91 0 1.74.14 2.49.44a5.38 5.38 0 013.15 3.25c.29.79.43 1.66.43 2.63 0 .98-.14 1.86-.43 2.64s-.7 1.45-1.23 2a5.3 5.3 0 01-1.92 1.28c-.75.3-1.58.44-2.49.44a6.8 6.8 0 01-2.5-.44 5.42 5.42 0 01-3.17-3.28 7.61 7.61 0 01-.44-2.64c0-.97.15-1.84.44-2.63.3-.78.7-1.45 1.23-1.99a5.5 5.5 0 011.93-1.26 6.8 6.8 0 012.51-.44zm0 10.4c1.03 0 1.78-.34 2.27-1.03.5-.69.74-1.7.74-3.03a5.2 5.2 0 00-.74-3.03c-.49-.7-1.24-1.05-2.27-1.05-1.04 0-1.81.36-2.31 1.06-.5.7-.75 1.7-.75 3.02s.25 2.33.75 3.03c.5.69 1.27 1.03 2.31 1.03zm25.7-10.21L202.21 21h-2.38c-.28 0-.46-.18-.57-.53l-2.2-7.11-.21-.71c-.06-.24-.1-.48-.14-.72a13.62 13.62 0 01-.36 1.45l-2.25 7.1c-.1.34-.3.52-.63.52h-2.28l-3.9-12.31h2.36c.22 0 .4.05.55.15.15.1.25.24.3.4l1.77 6.58a19.37 19.37 0 01.4 2.08 49.22 49.22 0 01.6-2.08l2.04-6.6c.05-.16.14-.3.28-.4.14-.1.32-.16.52-.16h1.3c.21 0 .39.06.53.16.15.1.25.24.3.4l1.98 6.6.29 1.06.28 1.04c.1-.68.25-1.38.44-2.1l1.81-6.58c.06-.16.16-.3.3-.4.15-.1.32-.15.52-.15h2.25z" fill="url(#paint8_linear)"/></g><g filter="url(#filter1_d)"><path d="M268.25 3.65V21h-2.85V9.8c0-.46.03-.94.08-1.46l-5.25 9.85c-.25.47-.63.71-1.14.71h-.45c-.52 0-.9-.24-1.14-.7l-5.3-9.9a27.7 27.7 0 01.08 1.5V21h-2.85V3.65h2.44l.37.01c.1 0 .2.03.28.06.08.03.16.08.22.16.08.07.14.16.2.28l5.2 9.64a20.4 20.4 0 01.72 1.63 17.13 17.13 0 01.74-1.65l5.12-9.62c.06-.12.13-.21.2-.28a.68.68 0 01.23-.16c.09-.03.19-.05.29-.06l.37-.01h2.44zm8.48 4.85c.9 0 1.73.14 2.48.44a5.38 5.38 0 013.16 3.25c.28.79.43 1.66.43 2.63 0 .98-.15 1.86-.44 2.64a5.3 5.3 0 01-3.16 3.28c-.74.3-1.56.44-2.47.44a6.8 6.8 0 01-2.51-.44 5.42 5.42 0 01-3.17-3.28 7.61 7.61 0 01-.43-2.64c0-.97.14-1.84.43-2.63a5.5 5.5 0 013.17-3.25 6.8 6.8 0 012.5-.44zm0 10.4c1.02 0 1.77-.34 2.26-1.03.5-.69.75-1.7.75-3.03a5.2 5.2 0 00-.75-3.03c-.49-.7-1.24-1.05-2.26-1.05-1.05 0-1.82.36-2.32 1.06-.5.7-.75 1.7-.75 3.02s.25 2.33.75 3.03c.5.69 1.27 1.03 2.31 1.03zm16.06-7.07a2.9 2.9 0 00-2.38-1.11c-.45 0-.85.08-1.21.25-.36.17-.67.42-.93.77a3.6 3.6 0 00-.58 1.3c-.14.51-.2 1.13-.2 1.84 0 .72.05 1.33.16 1.84.12.5.29.9.5 1.22.22.31.48.54.8.68.3.14.66.2 1.04.2.62 0 1.14-.12 1.57-.38.43-.25.84-.62 1.23-1.09v-5.52zm2.96-8.66V21h-1.81c-.4 0-.64-.18-.75-.54l-.25-1.19a6.18 6.18 0 01-1.71 1.38 4.58 4.58 0 01-4.1.11 4.2 4.2 0 01-1.45-1.21c-.4-.54-.71-1.2-.93-1.98a10.14 10.14 0 01.04-5.23c.25-.79.6-1.47 1.07-2.04a4.92 4.92 0 015.62-1.52c.49.22.92.51 1.3.88v-6.5h2.97zm10.86 10.26c0-.39-.06-.75-.17-1.08a2.5 2.5 0 00-.48-.9 2.2 2.2 0 00-.83-.6 2.72 2.72 0 00-1.15-.23c-.86 0-1.53.24-2.03.73-.49.49-.8 1.18-.94 2.08h5.6zm-5.66 1.79c.05.63.17 1.18.34 1.64.18.46.4.84.7 1.14.28.3.63.52 1.02.67.4.15.84.22 1.32.22.48 0 .89-.06 1.23-.17.36-.11.66-.24.92-.37l.68-.37c.2-.12.4-.17.57-.17.25 0 .44.09.56.27l.85 1.08a5.07 5.07 0 01-2.39 1.6 9.58 9.58 0 01-2.69.42c-.85 0-1.65-.14-2.38-.42a5.45 5.45 0 01-3.2-3.32 8.04 8.04 0 01-.07-5.22 5.55 5.55 0 013.02-3.24 6.17 6.17 0 012.49-.48c.77 0 1.5.12 2.15.37a4.64 4.64 0 012.8 2.84c.26.69.4 1.48.4 2.37 0 .44-.05.75-.14.9-.1.16-.28.24-.56.24h-7.62zm13.34-4.4c.38-.73.84-1.3 1.37-1.72a2.9 2.9 0 011.87-.64c.57 0 1.03.12 1.37.37l-.2 2.22a.59.59 0 01-.17.31.48.48 0 01-.3.09c-.12 0-.3-.02-.54-.06a4.02 4.02 0 00-.69-.06 2.22 2.22 0 00-1.57.56c-.2.18-.38.4-.54.65-.15.26-.3.55-.43.88V21h-2.96V8.69h1.74c.3 0 .51.05.63.17.12.1.2.3.24.57l.18 1.4zm12.5 4.92c-.86.04-1.58.12-2.16.23a5.6 5.6 0 00-1.4.41c-.36.17-.61.36-.76.59-.15.22-.23.47-.23.73 0 .52.15.9.46 1.12.3.22.71.33 1.2.33.62 0 1.14-.1 1.58-.32.45-.23.88-.56 1.3-1.01v-2.08zm-6.8-5.34a7.3 7.3 0 015.12-1.94c.72 0 1.36.12 1.93.36a3.98 3.98 0 012.33 2.48c.2.59.31 1.23.31 1.92V21h-1.34c-.28 0-.5-.04-.65-.12-.15-.09-.27-.26-.36-.52l-.27-.88c-.3.28-.61.52-.9.74a4.7 4.7 0 01-1.96.85 5.54 5.54 0 01-2.64-.08 3.24 3.24 0 01-1.14-.64 2.83 2.83 0 01-.75-1.04 3.7 3.7 0 01-.1-2.38c.1-.31.27-.6.5-.89.24-.28.55-.54.92-.79a6 6 0 011.38-.65c.55-.18 1.2-.33 1.92-.44.73-.12 1.56-.2 2.5-.22v-.72c0-.82-.18-1.43-.53-1.82-.35-.4-.86-.6-1.52-.6a3.67 3.67 0 00-2.03.55l-.66.37c-.2.12-.41.17-.65.17a.88.88 0 01-.53-.15 1.43 1.43 0 01-.35-.39l-.52-.95zm16.42 10.8c-1.07 0-1.9-.3-2.47-.9a3.53 3.53 0 01-.85-2.52v-6.87h-1.26a.58.58 0 01-.41-.16c-.11-.1-.17-.26-.17-.47V9.11l1.98-.33.63-3.36a.66.66 0 01.22-.37.68.68 0 01.44-.13h1.53V8.8h3.29v2.1h-3.29v6.68c0 .38.1.68.28.9a1 1 0 00.78.32 1.46 1.46 0 00.78-.2l.25-.13a.39.39 0 01.22-.07c.08 0 .16.02.21.07.06.04.12.1.18.19l.89 1.44c-.43.36-.93.63-1.49.82-.56.18-1.14.27-1.74.27zm12.67-7.77c0-.39-.06-.75-.17-1.08a2.5 2.5 0 00-.48-.9 2.2 2.2 0 00-.83-.6 2.72 2.72 0 00-1.15-.23c-.86 0-1.53.24-2.03.73-.49.49-.8 1.18-.94 2.08h5.6zm-5.66 1.79c.05.63.16 1.18.34 1.64.18.46.4.84.7 1.14.28.3.62.52 1.02.67.4.15.84.22 1.32.22.48 0 .89-.06 1.23-.17.35-.11.66-.24.91-.37l.69-.37c.2-.12.39-.17.57-.17.25 0 .44.09.56.27l.85 1.08a5.07 5.07 0 01-2.39 1.6 9.58 9.58 0 01-2.69.42c-.85 0-1.65-.14-2.39-.42a5.45 5.45 0 01-3.2-3.32 8.04 8.04 0 01-.06-5.22 5.55 5.55 0 013.02-3.24 6.17 6.17 0 012.49-.48c.77 0 1.49.12 2.15.37a4.64 4.64 0 012.8 2.84c.26.69.4 1.48.4 2.37 0 .44-.05.75-.14.9-.1.16-.28.24-.56.24h-7.62z" fill="url(#paint9_linear)"/></g><g filter="url(#filter2_d)"><path d="M403 12.3v7.02a9.29 9.29 0 01-2.81 1.43c-1 .3-2.06.44-3.2.44-1.4 0-2.7-.22-3.85-.66a8.08 8.08 0 01-4.81-4.64 9.42 9.42 0 01-.66-3.57c0-1.3.21-2.5.64-3.58a8.14 8.14 0 011.8-2.81 8.12 8.12 0 012.84-1.83c1.12-.43 2.36-.64 3.75-.64a10.87 10.87 0 013.67.63A7.1 7.1 0 01403 5.72l-.93 1.47a.9.9 0 01-.56.43c-.23.05-.49-.01-.76-.18l-.79-.46a7 7 0 00-3.37-.78c-.86 0-1.63.15-2.33.44-.69.28-1.27.7-1.76 1.23a5.57 5.57 0 00-1.13 1.93c-.26.76-.4 1.6-.4 2.52 0 1 .14 1.88.42 2.67.3.77.7 1.43 1.2 1.98.52.53 1.15.95 1.88 1.23.72.28 1.53.42 2.43.42a6.6 6.6 0 003.2-.75v-3.15h-2.2a.7.7 0 01-.48-.16.61.61 0 01-.17-.44V12.3H403zm7.96-3.8c.91 0 1.74.14 2.48.44a5.38 5.38 0 013.16 3.25c.29.79.43 1.66.43 2.63 0 .98-.14 1.86-.43 2.64s-.7 1.45-1.24 2a5.3 5.3 0 01-1.92 1.28c-.74.3-1.57.44-2.48.44a6.8 6.8 0 01-2.5-.44 5.42 5.42 0 01-3.18-3.28 7.61 7.61 0 01-.43-2.64c0-.97.14-1.84.43-2.63a5.5 5.5 0 013.17-3.25 6.8 6.8 0 012.5-.44zm0 10.4c1.02 0 1.78-.34 2.27-1.03.5-.69.74-1.7.74-3.03a5.2 5.2 0 00-.74-3.03c-.5-.7-1.25-1.05-2.27-1.05-1.04 0-1.81.36-2.32 1.06-.5.7-.74 1.7-.74 3.02s.25 2.33.74 3.03c.5.69 1.28 1.03 2.32 1.03zm13.78-10.4c.91 0 1.74.14 2.48.44a5.38 5.38 0 013.16 3.25c.29.79.43 1.66.43 2.63 0 .98-.14 1.86-.43 2.64s-.7 1.45-1.24 2a5.3 5.3 0 01-1.92 1.28c-.74.3-1.57.44-2.48.44a6.8 6.8 0 01-2.5-.44 5.42 5.42 0 01-3.18-3.28 7.61 7.61 0 01-.43-2.64c0-.97.15-1.84.43-2.63a5.5 5.5 0 013.17-3.25 6.8 6.8 0 012.51-.44zm0 10.4c1.02 0 1.78-.34 2.27-1.03.5-.69.74-1.7.74-3.03a5.2 5.2 0 00-.74-3.03c-.49-.7-1.25-1.05-2.27-1.05-1.04 0-1.81.36-2.32 1.06-.5.7-.74 1.7-.74 3.02s.25 2.33.74 3.03c.5.69 1.28 1.03 2.32 1.03zm16.06-7.07a2.9 2.9 0 00-2.38-1.11c-.44 0-.85.08-1.2.25-.37.17-.68.42-.93.77a3.6 3.6 0 00-.59 1.3c-.13.51-.2 1.13-.2 1.84 0 .72.05 1.33.17 1.84.12.5.28.9.5 1.22.21.31.48.54.8.68.3.14.65.2 1.03.2.62 0 1.14-.12 1.58-.38.43-.25.84-.62 1.22-1.09v-5.52zm2.96-8.66V21h-1.8c-.4 0-.65-.18-.75-.54l-.25-1.19a6.18 6.18 0 01-1.72 1.38 4.58 4.58 0 01-4.1.11 4.2 4.2 0 01-1.44-1.21c-.4-.54-.71-1.2-.94-1.98a10.14 10.14 0 01.05-5.23c.25-.79.6-1.47 1.07-2.04a4.92 4.92 0 015.61-1.52c.5.22.93.51 1.31.88v-6.5h2.96z" fill="url(#paint10_linear)"/></g><g filter="url(#filter3_d)"><path d="M488.67 6.22v4.8h6.07v2.5h-6.07v4.9h7.7V21h-10.94V3.65h10.94v2.57h-7.7zM509.76 21h-2.86a.8.8 0 01-.53-.17 1.65 1.65 0 01-.32-.38l-2.6-4.29-.15.39c-.05.12-.1.23-.17.33l-2.3 3.57c-.09.13-.2.26-.32.38a.7.7 0 01-.49.17h-2.65l4.23-6.35-4.06-5.96h2.86c.21 0 .37.03.48.1.1.05.2.15.27.28l2.58 4.1c.1-.27.21-.53.38-.8l2.07-3.24c.18-.3.4-.44.69-.44h2.72l-4.04 5.83 4.2 6.48zm9.8-9.7c-.09.1-.17.2-.26.26-.08.06-.2.1-.36.1a.84.84 0 01-.45-.14 7.9 7.9 0 00-.51-.31 3.36 3.36 0 00-1.74-.46c-.52 0-.98.1-1.37.29-.4.18-.72.45-.99.8-.25.36-.44.78-.57 1.29-.13.5-.2 1.06-.2 1.69 0 .66.07 1.24.21 1.75.14.51.35.95.61 1.3.27.34.59.6.96.79.38.18.8.26 1.27.26a3.2 3.2 0 001.89-.55l.52-.38a.8.8 0 01.5-.18c.24 0 .42.09.54.27l.85 1.08a5.52 5.52 0 01-3.54 1.92c-.43.07-.86.1-1.3.1a5.14 5.14 0 01-3.91-1.67c-.5-.54-.9-1.2-1.2-1.99-.28-.8-.43-1.7-.43-2.7 0-.9.13-1.74.38-2.5a5.7 5.7 0 011.16-2.01 5.22 5.22 0 011.87-1.33c.74-.32 1.6-.48 2.57-.48.92 0 1.72.14 2.4.44.7.3 1.33.72 1.88 1.27l-.78 1.08zm10.48 2.13c0-.39-.05-.75-.17-1.08a2.5 2.5 0 00-.48-.9 2.2 2.2 0 00-.82-.6 2.72 2.72 0 00-1.16-.23c-.85 0-1.53.24-2.02.73-.5.49-.8 1.18-.94 2.08h5.6zm-5.65 1.79c.05.63.16 1.18.34 1.64.17.46.4.84.7 1.14.28.3.62.52 1.01.67.4.15.84.22 1.32.22.48 0 .9-.06 1.24-.17.35-.11.65-.24.9-.37l.7-.37c.2-.12.38-.17.57-.17.25 0 .43.09.55.27l.85 1.08a5.07 5.07 0 01-2.39 1.6c-.43.15-.89.26-1.35.32-.46.07-.9.1-1.33.1-.86 0-1.65-.14-2.4-.42a5.45 5.45 0 01-3.2-3.32 8.04 8.04 0 01-.05-5.22 5.55 5.55 0 013.02-3.24 6.17 6.17 0 012.48-.48c.78 0 1.5.12 2.15.37a4.64 4.64 0 012.8 2.84c.27.69.4 1.48.4 2.37 0 .44-.04.75-.14.9-.1.16-.28.24-.55.24h-7.62zm13.54-12.05V21h-2.96V3.17h2.96zm5.95 0V21h-2.96V3.17h2.96zm10.89 10.26c0-.39-.06-.75-.17-1.08a2.5 2.5 0 00-.48-.9 2.2 2.2 0 00-.83-.6 2.72 2.72 0 00-1.15-.23c-.86 0-1.53.24-2.03.73-.49.49-.8 1.18-.94 2.08h5.6zm-5.65 1.79c.04.63.15 1.18.33 1.64.18.46.4.84.7 1.14.28.3.63.52 1.02.67.4.15.84.22 1.32.22.48 0 .89-.06 1.23-.17.36-.11.66-.24.91-.37l.69-.37c.2-.12.4-.17.57-.17.25 0 .44.09.56.27l.85 1.08a5.07 5.07 0 01-2.39 1.6 9.58 9.58 0 01-2.69.42c-.85 0-1.65-.14-2.38-.42a5.45 5.45 0 01-3.2-3.32 8.04 8.04 0 01-.07-5.22 5.55 5.55 0 013.02-3.24 6.17 6.17 0 012.49-.48c.77 0 1.5.12 2.15.37a4.64 4.64 0 012.8 2.84c.26.69.4 1.48.4 2.37 0 .44-.05.75-.14.9-.1.16-.28.24-.55.24h-7.63zm13.3-5.02c.25-.25.51-.48.79-.68a4.8 4.8 0 013.02-1.02c.67 0 1.27.11 1.79.34.52.23.95.55 1.3.96.35.41.61.9.79 1.48.18.57.27 1.2.27 1.88V21h-2.96v-7.84c0-.75-.17-1.33-.52-1.74-.34-.41-.87-.62-1.57-.62-.51 0-1 .12-1.44.35-.45.23-.87.55-1.27.95V21h-2.97V8.69h1.82c.38 0 .63.18.75.54l.2.97zm14.72 11c-1.07 0-1.9-.3-2.47-.9a3.53 3.53 0 01-.85-2.52v-6.87h-1.26a.58.58 0 01-.41-.16c-.11-.1-.17-.26-.17-.47V9.11l1.98-.33.63-3.36a.66.66 0 01.22-.37.68.68 0 01.44-.13h1.53V8.8h3.29v2.1h-3.29v6.68c0 .38.1.68.28.9a1 1 0 00.78.32 1.46 1.46 0 00.78-.2l.25-.13a.39.39 0 01.22-.07c.08 0 .16.02.21.07.06.04.12.1.18.19l.89 1.44c-.43.36-.93.63-1.49.82-.56.18-1.14.27-1.74.27z" fill="url(#paint11_linear)"/></g><g filter="url(#filter4_d)"><path d="M50.22 12.37c.59 0 1.1-.07 1.54-.21.44-.16.8-.37 1.1-.64.3-.28.51-.62.66-1a3.91 3.91 0 000-2.6 2.5 2.5 0 00-.65-.96 2.82 2.82 0 00-1.1-.6 5.03 5.03 0 00-1.55-.22H47.8v6.23h2.42zm0-8.72a9.9 9.9 0 013 .4 5.8 5.8 0 012.1 1.15c.56.48.97 1.07 1.23 1.75.27.68.41 1.42.41 2.23 0 .84-.14 1.61-.42 2.32-.28.7-.7 1.3-1.26 1.8s-1.26.9-2.11 1.17c-.84.28-1.83.42-2.95.42H47.8V21h-3.22V3.65h5.64zM63.85 8.5c.92 0 1.74.14 2.49.44a5.38 5.38 0 013.15 3.25c.3.79.44 1.66.44 2.63 0 .98-.15 1.86-.44 2.64a5.3 5.3 0 01-3.16 3.28c-.74.3-1.56.44-2.48.44a6.8 6.8 0 01-2.5-.44 5.42 5.42 0 01-3.17-3.28 7.61 7.61 0 01-.43-2.64c0-.97.14-1.84.43-2.63.3-.78.7-1.45 1.23-1.99a5.5 5.5 0 011.94-1.26 6.8 6.8 0 012.5-.44zm0 10.4c1.03 0 1.78-.34 2.27-1.03.5-.69.75-1.7.75-3.03a5.2 5.2 0 00-.75-3.03c-.49-.7-1.24-1.05-2.27-1.05-1.04 0-1.8.36-2.31 1.06-.5.7-.75 1.7-.75 3.02s.25 2.33.75 3.03c.5.69 1.27 1.03 2.31 1.03zM77.63 8.5c.92 0 1.74.14 2.49.44a5.38 5.38 0 013.15 3.25c.3.79.44 1.66.44 2.63 0 .98-.15 1.86-.44 2.64a5.3 5.3 0 01-3.16 3.28c-.74.3-1.56.44-2.48.44a6.8 6.8 0 01-2.5-.44 5.42 5.42 0 01-3.17-3.28 7.61 7.61 0 01-.43-2.64c0-.97.14-1.84.43-2.63.3-.78.7-1.45 1.23-1.99a5.5 5.5 0 011.94-1.26 6.8 6.8 0 012.5-.44zm0 10.4c1.03 0 1.78-.34 2.27-1.03.5-.69.75-1.7.75-3.03a5.2 5.2 0 00-.75-3.03c-.49-.7-1.24-1.05-2.27-1.05-1.04 0-1.8.36-2.31 1.06-.5.7-.75 1.7-.75 3.02s.25 2.33.75 3.03c.5.69 1.27 1.03 2.31 1.03zm11.13-8.08c.39-.73.84-1.3 1.37-1.72A2.9 2.9 0 0192 8.46c.57 0 1.03.12 1.37.37l-.19 2.22a.59.59 0 01-.18.31.48.48 0 01-.3.09c-.12 0-.3-.02-.54-.06a4.02 4.02 0 00-.68-.06 2.22 2.22 0 00-1.57.56c-.2.18-.39.4-.55.65-.15.26-.3.55-.43.88V21h-2.96V8.69h1.74c.3 0 .51.05.63.17.12.1.2.3.24.57l.18 1.4z" fill="url(#paint12_linear)"/></g><defs><linearGradient id="paint0_linear" x1="14.01" y1="46.66" x2="122.01" y2="46.66" gradientUnits="userSpaceOnUse"><stop stop-color="#662E9B"/><stop offset=".49" stop-color="#6314A2"/><stop offset="1" stop-color="#9C2E40"/></linearGradient><linearGradient id="paint1_linear" x1="14.01" y1="46.66" x2="122.01" y2="46.66" gradientUnits="userSpaceOnUse"><stop stop-color="#662E9B"/><stop offset=".49" stop-color="#6314A2"/><stop offset="1" stop-color="#9C2E40"/></linearGradient><linearGradient id="paint2_linear" x1="14.01" y1="46.66" x2="122.01" y2="46.66" gradientUnits="userSpaceOnUse"><stop stop-color="#662E9B"/><stop offset=".49" stop-color="#6314A2"/><stop offset="1" stop-color="#9C2E40"/></linearGradient><linearGradient id="paint3_linear" x1="14.01" y1="46.66" x2="122.01" y2="46.66" gradientUnits="userSpaceOnUse"><stop stop-color="#662E9B"/><stop offset=".49" stop-color="#6314A2"/><stop offset="1" stop-color="#9C2E40"/></linearGradient><linearGradient id="paint4_linear" x1="130" y1="46.66" x2="238" y2="46.66" gradientUnits="userSpaceOnUse"><stop stop-color="#C61516"/><stop offset=".49" stop-color="#E05A0E"/><stop offset="1" stop-color="#EE8912"/></linearGradient><linearGradient id="paint5_linear" x1="246" y1="46.66" x2="354" y2="46.66" gradientUnits="userSpaceOnUse"><stop stop-color="#EE8912"/><stop offset=".49" stop-color="#E6AE49"/><stop offset="1" stop-color="#F3D84B"/></linearGradient><linearGradient id="paint6_linear" x1="362" y1="46.66" x2="470" y2="46.66" gradientUnits="userSpaceOnUse"><stop stop-color="#C3ED1A"/><stop offset=".49" stop-color="#1EED1A"/><stop offset="1" stop-color="#18D7A9"/></linearGradient><linearGradient id="paint7_linear" x1="478" y1="46.09" x2="586" y2="46.09" gradientUnits="userSpaceOnUse"><stop stop-color="#44D8CF"/><stop offset=".51" stop-color="#239295"/><stop offset="1" stop-color="#374A5B"/></linearGradient><linearGradient id="paint8_linear" x1="163.5" y1="12" x2="205.5" y2="12" gradientUnits="userSpaceOnUse"><stop stop-color="#C61617"/><stop offset=".5" stop-color="#E15A0E"/><stop offset="1" stop-color="#EE8912"/></linearGradient><linearGradient id="paint9_linear" x1="263.78" y1="12" x2="337.98" y2="12" gradientUnits="userSpaceOnUse"><stop stop-color="#EE8913"/><stop offset=".5" stop-color="#E6AE49"/><stop offset="1" stop-color="#EAC710"/></linearGradient><linearGradient id="paint10_linear" x1="379.78" y1="12" x2="453.98" y2="12" gradientUnits="userSpaceOnUse"><stop stop-color="#C2ED1A"/><stop offset=".5" stop-color="#1EEC22"/><stop offset="1" stop-color="#19D7A9"/></linearGradient><linearGradient id="paint11_linear" x1="495.78" y1="12" x2="569.98" y2="12" gradientUnits="userSpaceOnUse"><stop stop-color="#44D8CF"/><stop offset=".5" stop-color="#249396"/><stop offset="1" stop-color="#374B5C"/></linearGradient><linearGradient id="paint12_linear" x1="45" y1="12" x2="94" y2="12" gradientUnits="userSpaceOnUse"><stop stop-color="#672E9C"/><stop offset=".52" stop-color="#66159F"/><stop offset="1" stop-color="#9C2E41"/></linearGradient><filter id="filter0_d" x="163.6" y="3.65" width="42.52" height="17.53" filterUnits="userSpaceOnUse" color-interpolation-filters="sRGB"><feFlood flood-opacity="0" result="BackgroundImageFix"/><feColorMatrix in="SourceAlpha" values="0 0 0 0 0 0 0 0 0 0 0 0 0 0 0 0 0 0 127 0"/><feOffset/><feColorMatrix values="0 0 0 0 0 0 0 0 0 0 0 0 0 0 0 0 0 0 0.1 0"/><feBlend in2="BackgroundImageFix" result="effect1_dropShadow"/><feBlend in="SourceGraphic" in2="effect1_dropShadow" result="shape"/></filter><filter id="filter1_d" x="249.43" y="3.17" width="102.31" height="18.02" filterUnits="userSpaceOnUse" color-interpolation-filters="sRGB"><feFlood flood-opacity="0" result="BackgroundImageFix"/><feColorMatrix in="SourceAlpha" values="0 0 0 0 0 0 0 0 0 0 0 0 0 0 0 0 0 0 127 0"/><feOffset/><feColorMatrix values="0 0 0 0 0 0 0 0 0 0 0 0 0 0 0 0 0 0 0.1 0"/><feBlend in2="BackgroundImageFix" result="effect1_dropShadow"/><feBlend in="SourceGraphic" in2="effect1_dropShadow" result="shape"/></filter><filter id="filter2_d" x="387.67" y="3.17" width="56.09" height="18.02" filterUnits="userSpaceOnUse" color-interpolation-filters="sRGB"><feFlood flood-opacity="0" result="BackgroundImageFix"/><feColorMatrix in="SourceAlpha" values="0 0 0 0 0 0 0 0 0 0 0 0 0 0 0 0 0 0 127 0"/><feOffset/><feColorMatrix values="0 0 0 0 0 0 0 0 0 0 0 0 0 0 0 0 0 0 0.1 0"/><feBlend in2="BackgroundImageFix" result="effect1_dropShadow"/><feBlend in="SourceGraphic" in2="effect1_dropShadow" result="shape"/></filter><filter id="filter3_d" x="485.43" y="3.17" width="94.94" height="18.02" filterUnits="userSpaceOnUse" color-interpolation-filters="sRGB"><feFlood flood-opacity="0" result="BackgroundImageFix"/><feColorMatrix in="SourceAlpha" values="0 0 0 0 0 0 0 0 0 0 0 0 0 0 0 0 0 0 127 0"/><feOffset/><feColorMatrix values="0 0 0 0 0 0 0 0 0 0 0 0 0 0 0 0 0 0 0.1 0"/><feBlend in2="BackgroundImageFix" result="effect1_dropShadow"/><feBlend in="SourceGraphic" in2="effect1_dropShadow" result="shape"/></filter><filter id="filter4_d" x="44.58" y="3.65" width="48.8" height="17.53" filterUnits="userSpaceOnUse" color-interpolation-filters="sRGB"><feFlood flood-opacity="0" result="BackgroundImageFix"/><feColorMatrix in="SourceAlpha" values="0 0 0 0 0 0 0 0 0 0 0 0 0 0 0 0 0 0 127 0"/><feOffset/><feColorMatrix values="0 0 0 0 0 0 0 0 0 0 0 0 0 0 0 0 0 0 0.1 0"/><feBlend in2="BackgroundImageFix" result="effect1_dropShadow"/><feBlend in="SourceGraphic" in2="effect1_dropShadow" result="shape"/></filter></defs></svg>
